<svg width="79" height="83" viewBox="0 0 79 83" fill="none" xmlns="http://www.w3.org/2000/svg">
<path d="M41.5833 60.3333H6.16667C5.0616 60.3333 4.00173 59.8943 3.22037 59.113C2.43901 58.3315 2 57.2717 2 56.1667V6.16667C2 5.0616 2.43901 4.00173 3.22037 3.22037C4.00173 2.43901 5.0616 2 6.16667 2H72.8333C73.9384 2 74.9983 2.43901 75.7796 3.22037C76.561 4.00173 77 5.0616 77 6.16667V43.6667" stroke="#60AEF0" stroke-width="3" stroke-linecap="round" stroke-linejoin="round"/>
<path d="M2 43.6667H77" stroke="#60AEF0" stroke-width="3" stroke-linecap="round" stroke-linejoin="round"/>
<path d="M22.8332 77H39.4999" stroke="#60AEF0" stroke-width="3" stroke-linecap="round" stroke-linejoin="round"/>
<path d="M31.1665 60.3333L29.0832 77" stroke="#60AEF0" stroke-width="3" stroke-linecap="round" stroke-linejoin="round"/>
<path d="M56.1668 81.1667L77.0001 60.3333" stroke="#60AEF0" stroke-width="3" stroke-linecap="round" stroke-linejoin="round"/>
<path d="M77 79.0833V60.3333H58.25" stroke="#60AEF0" stroke-width="3" stroke-linecap="round" stroke-linejoin="round"/>
</svg>
