<svg width="100" height="100" viewBox="0 0 100 100" fill="none" xmlns="http://www.w3.org/2000/svg">
<path d="M58.2528 99.7751H23.9032V95.24H58.2347C63.592 95.2295 68.4407 93.0605 71.9589 89.5567L93.3193 68.1964C94.6035 66.9391 95.3996 65.1876 95.3996 63.2501C95.3996 59.4279 92.3011 56.3295 88.4787 56.3295C86.5504 56.3295 84.8063 57.1181 83.5512 58.3905L59.4908 82.4507H54.4252V77.9155C57.9517 77.9087 60.808 75.0484 60.808 71.5208C60.808 71.1573 60.7779 70.8007 60.7193 70.4539L60.7245 70.4913C60.0401 67.4013 57.3235 65.1245 54.0751 65.1245C54.0212 65.1245 53.9673 65.1251 53.9137 65.1265L53.9219 65.1263H36.3884L31.6944 62.8043C29.2504 61.5697 26.3671 60.8468 23.3147 60.8468C18.8053 60.8468 14.6643 62.4248 11.4138 65.0588L11.4493 65.0309C7.22015 68.4217 4.53548 73.5881 4.53548 79.3812C4.53548 79.4783 4.53625 79.5751 4.53772 79.6717L4.53752 79.6571V80.1831H0.00224104V79.6979C0.000779492 79.6024 0 79.4899 0 79.3769C0 72.1581 3.34715 65.7211 8.57403 61.5329L8.61913 61.4979C12.6055 58.2685 17.7391 56.3132 23.3293 56.3132C27.1148 56.3132 30.6907 57.2097 33.8564 58.802L33.7216 58.7405L37.4632 60.5909H53.8715C53.9361 60.5896 54.0123 60.5889 54.0888 60.5889C59.5291 60.5889 64.0745 64.4205 65.1735 69.5325L65.1869 69.6071V69.6932C65.2203 69.8835 65.2475 70.0739 65.2688 70.2645L80.3529 55.1804C82.4345 53.0527 85.3352 51.7333 88.544 51.7333C94.8709 51.7333 100 56.8624 100 63.1893C100 66.4117 98.6696 69.3233 96.5281 71.4049L96.5255 71.4076L75.1689 92.764C70.8325 97.0824 64.8567 99.7577 58.256 99.7755L58.2528 99.7751ZM54.2437 82.4507H32.5652V77.9153H54.2439L54.2437 82.4507ZM49.8899 0C65.4943 0 78.1443 12.65 78.1443 28.2544C78.1443 43.8589 65.4943 56.5091 49.8899 56.5091C34.2853 56.5091 21.6353 43.8589 21.6353 28.2544C21.6535 12.6573 34.2925 0.0181232 49.8881 9.73831e-05L49.8899 0ZM49.8899 51.9736C62.9896 51.9736 73.6091 41.3543 73.6091 28.2544C73.6091 15.1547 62.9895 4.53548 49.8899 4.53548C36.7901 4.53548 26.1705 15.1551 26.1705 28.2548C26.1861 41.3483 36.7963 51.9587 49.8885 51.9741L49.8899 51.9736ZM49.8899 0C52.2708 0 55.6405 1.58724 58.1665 9.16117C59.8552 14.5713 60.8277 20.792 60.8277 27.2399C60.8277 27.5964 60.8248 27.9527 60.8191 28.308L60.8196 28.2547C60.8248 28.5565 60.8277 28.9125 60.8277 29.2693C60.8277 35.7171 59.8551 41.9377 58.0484 47.7924L58.1665 47.3479C55.6403 54.9217 52.2709 56.5091 49.8899 56.5091C47.5089 56.5091 44.1389 54.9219 41.6129 47.3479C39.9243 41.9377 38.9515 35.7171 38.9515 29.2692C38.9515 28.9127 38.9544 28.5564 38.9603 28.2011L38.9597 28.2547C38.9544 27.9525 38.9515 27.5967 38.9515 27.2399C38.9515 20.7921 39.9243 14.5715 41.7309 8.71677L41.6131 9.16128C44.1391 1.58753 47.5089 0 49.8899 0ZM49.8899 51.9736C50.6744 51.9736 52.3796 50.3591 53.8627 45.9147C55.4052 40.9341 56.2935 35.2085 56.2935 29.2753C56.2935 28.9164 56.2903 28.5583 56.2837 28.2007L56.2845 28.2543C56.2904 27.9504 56.2935 27.5921 56.2935 27.2331C56.2935 21.3003 55.4052 15.5745 53.7543 10.1821L53.8627 10.5941C52.3797 6.14951 50.6747 4.53548 49.8899 4.53548C49.1051 4.53548 47.4 6.14951 45.9169 10.5941C44.3745 15.5744 43.4863 21.3 43.4863 27.2333C43.4863 27.5921 43.4895 27.9504 43.496 28.308L43.4952 28.2544C43.4893 28.5581 43.4863 28.9164 43.4863 29.2753C43.4863 35.2085 44.3745 40.9341 46.0255 46.3265L45.9169 45.9145C47.4 50.3408 49.1051 51.9736 49.8899 51.9736ZM75.8767 30.522H23.9028V25.9871H75.8765L75.8767 30.522Z" fill="#60AEF0"/>
</svg>
