<svg width="100" height="103" viewBox="0 0 100 103" fill="none" xmlns="http://www.w3.org/2000/svg">
<path d="M49.9998 0C56.0498 0 60.9544 4.90921 60.9544 10.9649C60.9544 17.0206 56.05 21.9299 50 21.9299C43.95 21.9299 39.0454 17.0206 39.0454 10.9649C39.0532 4.9123 43.9536 0.00768404 49.9998 0ZM49.9998 17.3801C53.5395 17.3801 56.409 14.5081 56.409 10.9649C56.409 7.42179 53.5395 4.54975 49.9998 4.54975C46.46 4.54975 43.5907 7.42179 43.5907 10.9649C43.5956 14.5059 46.4625 17.3749 49.9998 17.3801ZM65.2725 32.6674H60.7269C60.7269 26.7373 55.9244 21.9299 50 21.9299C44.0754 21.9299 39.2725 26.7372 39.2725 32.6674H34.7271C34.7271 24.2244 41.5647 17.3801 49.9998 17.3801C58.4347 17.3801 65.2725 24.2244 65.2725 32.6674ZM84.7269 69.475C90.7769 69.475 95.6815 74.3842 95.6815 80.4398C95.6815 86.4956 90.7768 91.405 84.7269 91.405C78.6769 91.405 73.7725 86.4956 73.7725 80.4398C73.7805 74.3873 78.6808 69.4826 84.7269 69.475ZM84.7269 86.8551C88.2666 86.8551 91.1361 83.983 91.1361 80.4398C91.1361 76.8968 88.2668 74.0247 84.7269 74.0247C81.1873 74.0247 78.318 76.8968 78.318 80.4398C78.3231 83.9808 81.19 86.8498 84.7269 86.8551ZM99.9997 102.188H95.4542C95.4542 96.2452 90.6414 91.4278 84.7044 91.4278C78.7673 91.4278 73.9546 96.2452 73.9546 102.188H69.4092C69.4092 93.7325 76.2571 86.8778 84.7046 86.8778C93.152 86.8778 99.9997 93.7323 99.9997 102.188ZM15.2727 69.475C21.3227 69.475 26.2273 74.3842 26.2273 80.4398C26.2273 86.4956 21.3227 91.405 15.2727 91.405C9.22275 91.405 4.3182 86.4956 4.3182 80.4398C4.32598 74.3873 9.22652 69.4826 15.2727 69.475ZM15.2727 86.8551C18.8124 86.8551 21.6819 83.983 21.6819 80.4398C21.6819 76.8968 18.8125 74.0247 15.2727 74.0247C11.733 74.0247 8.86363 76.8968 8.86363 80.4398C8.86881 83.9808 11.7356 86.8498 15.2727 86.8551ZM30.5908 102.188H26.0454C26.0454 96.2452 21.2324 91.4278 15.2954 91.4278C9.35844 91.4278 4.54553 96.2452 4.54553 102.188H0C0 93.7325 6.84805 86.8778 15.2956 86.8778C23.7432 86.8778 30.5908 93.7323 30.5908 102.188ZM52.2725 58.7376H47.7271V37.0351H52.2725V58.7376ZM65.9998 73.6154L49.9998 61.5812L34 73.6154L31.2727 69.9755L50 55.8712L68.7271 69.9755L65.9998 73.6154Z" fill="#60AEF0"/>
</svg>
