<svg width="79" height="74" viewBox="0 0 79 74" fill="none" xmlns="http://www.w3.org/2000/svg">
<path d="M2 2V72.4081H76.7348" stroke="#60AEF0" stroke-width="3" stroke-linecap="round" stroke-linejoin="round"/>
<path d="M26.9116 56.7619C31.4976 56.7619 35.2155 53.2594 35.2155 48.9388C35.2155 44.6183 31.4976 41.1156 26.9116 41.1156C22.3255 41.1156 18.6076 44.6183 18.6076 48.9388C18.6076 53.2594 22.3255 56.7619 26.9116 56.7619Z" stroke="#60AEF0" stroke-width="3" stroke-linecap="round" stroke-linejoin="round"/>
<path d="M43.5194 17.6462C48.1055 17.6462 51.8232 14.1437 51.8232 9.8231C51.8232 5.5026 48.1055 2 43.5194 2C38.9332 2 35.2155 5.5026 35.2155 9.8231C35.2155 14.1437 38.9332 17.6462 43.5194 17.6462Z" stroke="#60AEF0" stroke-width="3" stroke-linecap="round" stroke-linejoin="round"/>
<path d="M64.2789 45.027C68.8651 45.027 72.5829 41.5245 72.5829 37.2039C72.5829 32.8833 68.8651 29.3808 64.2789 29.3808C59.6929 29.3808 55.9751 32.8833 55.9751 37.2039C55.9751 41.5245 59.6929 45.027 64.2789 45.027Z" stroke="#60AEF0" stroke-width="3" stroke-linecap="round" stroke-linejoin="round"/>
<path d="M76.7348 2L51.8232 7.86732" stroke="#60AEF0" stroke-width="3" stroke-linecap="round" stroke-linejoin="round"/>
<path d="M48.1405 16.2773L59.6455 30.7306" stroke="#60AEF0" stroke-width="3" stroke-linecap="round" stroke-linejoin="round"/>
<path d="M55.9751 39.1599L35.2155 46.983" stroke="#60AEF0" stroke-width="3" stroke-linecap="round" stroke-linejoin="round"/>
</svg>
