<svg width="100" height="100" viewBox="0 0 100 100" fill="none" xmlns="http://www.w3.org/2000/svg">
<path d="M56.9919 5.08805V4.66432H56.5681H43.8446H43.4208V5.08805V17.8113V18.235H43.8446H56.5681H56.9919V17.8113V5.08805ZM18.2353 5.08805V4.66432H17.8115H5.08815H4.66442V5.08805V17.8113V18.235H5.08815H17.8115H18.2353V17.8113V5.08805ZM95.7483 5.08805V4.66432H95.3246H82.6014H82.1776V5.08805V17.8113V18.235H82.6014H95.3246H95.7483V17.8113V5.08805ZM56.9917 43.8447V43.421H56.568H43.8446H43.4208V43.8447V56.5679V56.9917H43.8446H56.5681H56.9919V56.5679L56.9917 43.8447ZM18.2353 43.8447V43.421H17.8115H5.08815H4.66442V43.8447V56.5679V56.9917H5.08815H17.8115H18.2353V56.5679V43.8447ZM95.7485 43.8447V43.421H95.3247H82.6014H82.1776V43.8447V56.5679V56.9917H82.6014H95.3246H95.7483V56.5679L95.7485 43.8447ZM56.9919 82.6013V82.1776H56.5681H43.8446H43.4208V82.6013V95.3245V95.7483H43.8446H56.5681H56.9919V95.3245V82.6013ZM18.2353 82.6011V82.1774H17.8115H5.08815H4.66442V82.6011V95.3244V95.7481H5.08815H17.8115H18.2353V95.3244V82.6011ZM95.7485 82.601V82.1773H95.3247H82.6014H82.1776V82.601V95.3242V95.7479H82.6014H95.3246H95.7483V95.3242L95.7485 82.601ZM39.7566 1H60.6561V21.8996H39.7566V1ZM1 1H21.8997V21.8996H1V1ZM78.5131 1H99.4127V21.8996H78.5131V1ZM39.7566 39.7566H60.6561V60.6561H39.7566V39.7566ZM1 39.7566H21.8997V60.6561H1V39.7566ZM78.5132 39.7566H99.4127V60.6561H78.5131L78.5132 39.7566ZM39.7566 78.5132H60.6563V99.4128H39.7566V78.5132ZM1 78.513H21.8997V99.4127H1V78.513ZM78.5132 78.513H99.4127V99.4125H78.5131L78.5132 78.513Z" fill="#60AEF0" stroke="black" stroke-width="0.5"/>
</svg>
