<svg width="100" height="100" viewBox="0 0 100 100" fill="none" xmlns="http://www.w3.org/2000/svg">
<path d="M50 9.76247e-05C56.05 9.76247e-05 60.9547 4.90453 60.9547 10.9547C60.9547 17.0049 56.0499 21.9091 49.9999 21.9091C43.95 21.9091 39.0453 17.0047 39.0453 10.9546C39.0531 4.90775 43.954 0.00791189 50 9.76247e-05ZM50 17.3637C53.5397 17.3637 56.4091 14.4943 56.4091 10.9546C56.4091 7.41496 53.5397 4.54556 50 4.54556C46.4603 4.54556 43.5909 7.41496 43.5909 10.9546C43.5961 14.4921 46.4629 17.3584 50 17.3637ZM65.2727 32.6364H60.7272C60.7272 26.7119 55.9243 21.9091 49.9999 21.9091C44.0755 21.9091 39.2728 26.7119 39.2728 32.6365H34.7273C34.7273 24.2016 41.5651 17.3637 50 17.3637C58.4349 17.3637 65.2727 24.2016 65.2727 32.6364ZM84.7272 52.0455C90.7772 52.0455 95.6819 56.9499 95.6819 63.0001C95.6819 69.0503 90.7772 73.9545 84.7272 73.9545C78.6772 73.9545 73.7725 69.0501 73.7725 62.9999C73.7804 56.9532 78.6811 52.0531 84.7272 52.0455ZM84.7272 69.4092C88.2669 69.4092 91.1363 66.5399 91.1363 63.0003C91.1363 59.4605 88.2669 56.5912 84.7272 56.5912C81.1876 56.5912 78.3181 59.4605 78.3181 63.0003C78.3233 66.5377 81.1901 69.4039 84.7272 69.4092ZM69.4091 84.7365C69.4091 76.2891 76.2571 69.4411 84.7045 69.4411C93.152 69.4411 100 76.2891 100 84.7365H95.4545C95.4545 78.7993 90.6416 73.9865 84.7045 73.9865C78.7675 73.9865 73.9545 78.7995 73.9545 84.7365H69.4091ZM15.2728 52.0455C21.3227 52.0455 26.2272 56.9501 26.2272 63.0001C26.2272 69.0501 21.3228 73.9548 15.2727 73.9548C9.22269 73.9548 4.31816 69.0501 4.31816 63.0001C4.32599 56.9532 9.22676 52.0533 15.2728 52.0455ZM15.2728 69.4093C18.8124 69.4093 21.6817 66.54 21.6817 63.0003C21.6817 59.4607 18.8124 56.5912 15.2728 56.5912C11.7331 56.5912 8.86373 59.4607 8.86373 63.0003C8.86891 66.5379 11.7357 69.4041 15.2728 69.4093ZM30.5909 84.7365H26.0455C26.0455 78.7993 21.2325 73.9865 15.2955 73.9865C9.35837 73.9865 4.54547 78.7993 4.54547 84.7365H0C0 76.2891 6.84804 69.4411 15.2955 69.4411C23.7429 69.4411 30.5909 76.2891 30.5909 84.7365ZM8.94997 47.2728L4.40452 46.9729C5.49207 31.0569 14.5963 17.4872 27.6737 10.173L27.9045 10.0544L30.0999 14.0363C18.0991 20.7048 9.89345 32.9345 8.95643 47.15L8.94997 47.2728ZM91.0499 47.2728C90.1123 32.9303 81.9071 20.6947 70.1125 14.1292L69.9045 14.0227L72.0999 10.0409C85.4081 17.4777 94.51 31.0531 95.5832 46.8325L95.5908 46.9728L91.0499 47.2728ZM50 100C43.7691 99.9949 37.8332 98.7389 32.4273 96.4701L32.7272 96.5819L34.45 92.3773C39.0455 94.324 44.3895 95.4551 49.9977 95.4551C55.606 95.4551 60.95 94.324 65.814 92.2772L65.5455 92.3775L67.2683 96.582C62.1637 98.7388 56.2293 99.9945 50.0023 100L50 100Z" fill="#60AEF0"/>
</svg>
