<svg width="100" height="100" viewBox="0 0 100 100" fill="none" xmlns="http://www.w3.org/2000/svg">
<path d="M45.8127 91.3204H45.64C20.4299 91.3028 0 70.8617 0 45.6492C0 33.0384 5.11109 21.6213 13.3748 13.3568C21.6377 5.10387 33.0473 0 45.6492 0C70.8725 0 91.3204 20.4476 91.3204 45.6711V45.7005V45.6989V45.8169C91.3204 50.6628 90.5491 55.3285 89.1224 59.698L89.2117 59.382L84.8808 58.0188C86.08 54.3799 86.7715 50.1912 86.7715 45.8413C86.7715 45.7976 86.7715 45.754 86.7713 45.7104V45.6564C86.7713 22.9428 68.3583 4.52971 45.6445 4.52971C34.2907 4.52971 24.0113 9.13063 16.5693 16.5697C9.12789 24.0119 4.52512 34.2929 4.52512 45.6489C4.52512 68.3627 22.9381 86.7757 45.6519 86.7757H45.6919H45.69L45.8195 86.7759C50.1708 86.7759 54.3607 86.0843 58.2851 84.8049L58.0009 84.8851L59.3641 89.2161C55.3145 90.5504 50.6535 91.3203 45.8127 91.3204ZM16.3241 77.6416L13.0749 74.4605C21.3829 66.0183 32.9204 60.7755 45.6827 60.7365H45.7601C51.5252 60.7365 57.0364 61.822 62.1009 63.8L61.7952 63.6949C63.3216 64.2511 64.5955 64.8283 65.8187 65.4873L65.658 65.4081L63.5267 69.4208C62.6187 68.9261 61.5305 68.4345 60.4053 68.0195L60.2276 67.9621H60.1865C55.9048 66.2735 50.9452 65.2945 45.7572 65.2945H45.6816H45.6855C34.1908 65.3271 23.8043 70.0443 16.3293 77.6364L16.3241 77.6416ZM45.6173 30.6072H45.5944C39.8172 30.6072 34.2941 29.5181 29.2197 27.5343L29.5256 27.6397C23.0776 25.1779 17.5851 21.514 13.0803 16.8843L13.0703 16.874L16.3331 13.6929C20.3925 17.8653 25.3315 21.1596 30.8527 23.2791L31.1297 23.3725C35.4227 25.0641 40.3949 26.0447 45.5961 26.0447H45.6759H45.6717H45.7405C50.9312 26.0447 55.8933 25.0657 60.4523 23.2824L60.1775 23.3771C65.9871 21.1717 70.9368 17.8813 74.9977 13.7195L75.0059 13.7112L78.2687 16.8923C73.7565 21.5252 68.2689 25.1841 62.1353 27.5401L61.8271 27.6444C57.0669 29.5201 51.5539 30.6073 45.7868 30.6073H45.7132H45.7171L45.6173 30.6072ZM45.6944 0.0233451C51.3251 0.0233451 56.4329 5.02231 60.0775 14.1611C63.4115 23.0628 65.3409 33.3499 65.3409 44.0873C65.3409 44.6525 65.3356 45.2163 65.3249 45.7789L65.3263 45.6947C65.3355 46.1729 65.3409 46.7369 65.3409 47.3019C65.3409 58.0396 63.4113 68.3265 59.88 77.8349L60.0773 77.2284C56.4328 86.3671 51.3248 91.3659 45.6943 91.3659C40.0637 91.3659 34.9561 86.3669 31.3116 77.2281C27.9776 68.3263 26.0481 58.0393 26.0481 47.3016C26.0481 46.7365 26.0535 46.1728 26.064 45.6101L26.0628 45.6945C26.0535 45.2163 26.0481 44.6524 26.0481 44.0873C26.0481 33.3496 27.9776 23.0628 31.5089 13.5543L31.3116 14.1611C34.9561 5.02231 40.0639 0.0233451 45.6944 0.0233451ZM45.6944 86.8215C52.8292 86.8215 60.782 69.93 60.782 45.6947C60.782 21.4593 52.8292 4.56791 45.6947 4.56791C38.5601 4.56791 30.6072 21.4593 30.6072 45.6947C30.6072 69.93 38.5599 86.8215 45.6944 86.8215ZM73.0517 100H56.4193V83.3675C56.4375 68.4917 68.4917 56.4375 83.3657 56.4193H100V73.052C99.9819 87.9277 87.9276 99.982 73.0536 100H73.0517ZM60.9637 95.4559H73.0516C85.4188 95.4403 95.4401 85.4189 95.4556 73.0535V60.9639H83.3675C71.0004 60.9793 60.9792 71.0005 60.9636 83.3663L60.9637 95.4559ZM60.3003 99.3365L57.0875 96.1236L79.4004 73.8107L82.6133 77.0236L60.3003 99.3365ZM89.0481 47.9668H2.29543V43.4225H89.048L89.0481 47.9668Z" fill="#60AEF0"/>
</svg>
