<svg width="79" height="79" viewBox="0 0 79 79" fill="none" xmlns="http://www.w3.org/2000/svg">
<path d="M39.5 2V22.8334M56.1666 39.5H77" stroke="#60AEF0" stroke-width="3" stroke-linecap="round" stroke-linejoin="round"/>
<path d="M39.5001 56.1666C48.7048 56.1666 56.1667 48.7047 56.1667 39.5C56.1667 30.2952 48.7048 22.8333 39.5001 22.8333C30.2953 22.8333 22.8334 30.2952 22.8334 39.5C22.8334 48.7047 30.2953 56.1666 39.5001 56.1666Z" stroke="#60AEF0" stroke-width="3" stroke-linecap="round" stroke-linejoin="round"/>
<path d="M39.5 77C60.2107 77 77 60.2107 77 39.5C77 18.7894 60.2107 2 39.5 2C18.7893 2 2 18.7894 2 39.5C2 60.2107 18.7893 77 39.5 77Z" stroke="#60AEF0" stroke-width="3" stroke-linecap="round" stroke-linejoin="round"/>
</svg>
