<svg width="99" height="99" viewBox="0 0 99 99" fill="none" xmlns="http://www.w3.org/2000/svg">
<path d="M49.6519 1C62.5552 1 74.93 6.12581 84.054 15.2498C93.1779 24.3738 98.3038 36.7485 98.3038 49.6519C98.3038 62.5552 93.1779 74.93 84.054 84.0539C74.93 93.1779 62.5552 98.3038 49.6519 98.3038C36.7486 98.3038 24.3738 93.1779 15.2498 84.0539C6.12581 74.93 1 62.5552 1 49.6519C1 36.7485 6.12581 24.3738 15.2498 15.2498C24.3738 6.12581 36.7486 1 49.6519 1ZM6.04002 49.6519C6.04002 73.7003 25.604 93.2638 49.6519 93.2638C73.7002 93.2638 93.2638 73.7001 93.2638 49.6519C93.2638 25.6036 73.7002 6.04001 49.6519 6.04001C25.6037 6.04001 6.04002 25.6036 6.04002 49.6519Z" fill="#60AEF0" stroke="black"/>
<path d="M41.7575 60.5803L42.3186 61.1414L42.8799 60.5803L72.3218 31.1384L75.8857 34.7022L42.3186 68.269L23.551 49.5014L27.1146 45.9377L41.7575 60.5803Z" fill="#60AEF0" stroke="black"/>
</svg>
