<svg width="112" height="108" viewBox="0 0 112 108" fill="none" xmlns="http://www.w3.org/2000/svg">
<path d="M56 0.000110507C77.9878 0.00286419 95.8117 17.876 95.8117 39.923C95.8117 39.9646 95.8115 40.0058 95.8114 40.0473V40.0408C95.8115 40.0759 95.8117 40.1172 95.8117 40.1588C95.8117 50.8886 91.5401 60.6183 84.609 67.7313L84.6164 67.7235C79.9801 72.5918 77.1268 79.2018 77.1268 86.4799C77.1268 86.5909 77.1275 86.7014 77.1289 86.8119V86.7951V89.247H34.8668V86.7951L34.8669 86.68C34.8669 79.261 31.9727 72.5198 27.2545 67.5297L27.2663 67.5422C20.4139 60.3835 16.1942 50.6448 16.1942 39.9182C16.1942 25.062 24.2879 12.1016 36.295 5.22781L36.4905 5.12472C42.1062 1.9062 48.831 0.00616825 55.9981 0L56 0.000110507ZM72.3062 84.3482C72.8405 76.546 76.0847 69.5923 81.0914 64.3427L81.0801 64.3548C87.1656 58.1241 90.9207 49.5847 90.9207 40.1659C90.9207 40.1185 90.9207 40.0712 90.9206 40.0238V40.0309L90.9207 39.921C90.9207 20.5832 75.2862 4.90684 56.0001 4.90684C36.7142 4.90684 21.0796 20.5833 21.0796 39.9212C21.0796 49.3432 24.7911 57.8957 30.8279 64.1895L30.817 64.1781C35.8352 69.4812 39.1044 76.4922 39.6729 84.2555L39.6792 84.3627L72.3062 84.3482ZM58.4455 27.2366V51.8006H42.0856L58.4455 27.2366ZM53.5545 46.8965V43.4098L51.2313 46.8965H53.5545ZM53.5545 66.8753V42.2379H69.9047L53.5545 66.8753ZM58.4455 47.1418V50.6532L60.7784 47.1418H58.4455ZM34.8716 84.3627H77.1284V96.1815C77.1201 102.705 71.8479 107.991 65.3423 108H46.6586C40.1523 107.992 34.8802 102.705 34.8717 96.1822L34.8716 84.3627ZM72.2375 89.2668H39.7625V96.1815C39.7679 99.9981 42.8522 103.09 46.6579 103.096H65.3417C69.1481 103.09 72.2321 99.9979 72.2376 96.1819L72.2375 89.2668ZM9.29243 42.4831H0V37.579H9.29243V42.4831ZM23.3295 5.01688H13.9875V0.112901H23.329L23.3295 5.01688ZM23.3295 79.9002H13.9875V74.9962H23.329L23.3295 79.9002ZM112 42.4831H102.708V37.579H112V42.4831ZM98.0122 79.9002H88.6708V74.9962H98.0122V79.9002ZM98.0122 5.01688H88.6708V0.112901H98.0122V5.01688Z" fill="#60AEF0"/>
</svg>
